HIERARCHY
ROOT Root
{
  OFFSET 0.0 0.0 0.0
  CHANNELS 6 Xposition Yposition Zposition Zrotation Yrotation Xrotation
  JOINT Hips
  {
    OFFSET 0.0 100.0 0.0
    CHANNELS 6 Xposition Yposition Zposition Zrotation Yrotation Xrotation
    JOINT Spine1
    {
      OFFSET -0.013727 5.003763 -0.053727
      CHANNELS 3 Zrotation Yrotation Xrotation
      JOINT Spine2
      {
        OFFSET -0.0 7.125301 -0.029825
        CHANNELS 3 Zrotation Yrotation Xrotation
        JOINT Chest
        {
          OFFSET -1e-06 7.550063 -0.815971
          CHANNELS 3 Zrotation Yrotation Xrotation
          JOINT Neck1
          {
            OFFSET -0.181677 26.311295 -0.553348
            CHANNELS 3 Zrotation Yrotation Xrotation
            JOINT Neck2
            {
              OFFSET -3e-06 7.709397 2.302585
              CHANNELS 3 Zrotation Yrotation Xrotation
              JOINT Head
              {
                OFFSET -5e-06 6.128916 1.953709
                CHANNELS 3 Zrotation Yrotation Xrotation
                JOINT HeadEnd
                {
                  OFFSET 0.003598 16.065403 -1.835379
                  CHANNELS 3 Zrotation Yrotation Xrotation
                }
                JOINT Jaw
                {
                  OFFSET 0.002637 0.475592 3.094941
                  CHANNELS 3 Zrotation Yrotation Xrotation
                }
                JOINT LeftEye
                {
                  OFFSET 3.206381 5.380205 7.586883
                  CHANNELS 3 Zrotation Yrotation Xrotation
                }
                JOINT RightEye
                {
                  OFFSET -3.22244 5.361869 7.558234
                  CHANNELS 3 Zrotation Yrotation Xrotation
                }
              }
            }
          }
          JOINT LeftShoulder
          {
            OFFSET 1.621652 23.237164 5.113413
            CHANNELS 3 Zrotation Yrotation Xrotation
            JOINT LeftArm
            {
              OFFSET 14.919846 2e-06 -5.502326
              CHANNELS 3 Zrotation Yrotation Xrotation
              JOINT LeftForeArm
              {
                OFFSET 28.739307 0.0 -0.002588
                CHANNELS 3 Zrotation Yrotation Xrotation
                JOINT LeftHand
                {
                  OFFSET 27.093981 -1e-06 0.002609
                  CHANNELS 3 Zrotation Yrotation Xrotation
                  JOINT LeftHandThumb1
                  {
                    OFFSET 2.276482 -1.392045 3.191413
                    CHANNELS 3 Zrotation Yrotation Xrotation
                    JOINT LeftHandThumb2
                    {
                      OFFSET 4.012836 -1.828127 1.641654
                      CHANNELS 3 Zrotation Yrotation Xrotation
                      JOINT LeftHandThumb3
                      {
                        OFFSET 2.798515 0.0 -3e-06
                        CHANNELS 3 Zrotation Yrotation Xrotation
                        JOINT LeftHandThumbEnd
                        {
                          OFFSET 3.180793 -4e-06 4e-06
                          CHANNELS 3 Zrotation Yrotation Xrotation
                        }
                      }
                    }
                  }
                  JOINT LeftHandIndex1
                  {
                    OFFSET 3.247555 -0.531998 2.296169
                    CHANNELS 3 Zrotation Yrotation Xrotation
                    JOINT LeftHandIndex2
                    {
                      OFFSET 6.364578 0.01206 0.1786
                      CHANNELS 3 Zrotation Yrotation Xrotation
                      JOINT LeftHandIndex3
                      {
                        OFFSET 3.662364 0.0 0.0
                        CHANNELS 3 Zrotation Yrotation Xrotation
                        JOINT LeftHandIndex4
                        {
                          OFFSET 2.329242 4e-06 4e-06
                          CHANNELS 3 Zrotation Yrotation Xrotation
                          JOINT LeftHandIndexEnd
                          {
                            OFFSET 2.759615 -0.180537 -0.113024
                            CHANNELS 3 Zrotation Yrotation Xrotation
                          }
                        }
                      }
                    }
                  }
                  JOINT LeftHandMiddle1
                  {
                    OFFSET 3.163495 0.240981 1.000332
                    CHANNELS 3 Zrotation Yrotation Xrotation
                    JOINT LeftHandMiddle2
                    {
                      OFFSET 6.19078 -0.259278 -1.002548
                      CHANNELS 3 Zrotation Yrotation Xrotation
                      JOINT LeftHandMiddle3
                      {
                        OFFSET 4.35652 -4e-06 -1e-06
                        CHANNELS 3 Zrotation Yrotation Xrotation
                        JOINT LeftHandMiddle4
                        {
                          OFFSET 2.996877 -8e-06 0.0
                          CHANNELS 3 Zrotation Yrotation Xrotation
                          JOINT LeftHandMiddleEnd
                          {
                            OFFSET 2.304287 -0.294569 -0.031741
                            CHANNELS 3 Zrotation Yrotation Xrotation
                          }
                        }
                      }
                    }
                  }
                  JOINT LeftHandRing1
                  {
                    OFFSET 2.882643 -0.053652 -0.322543
                    CHANNELS 3 Zrotation Yrotation Xrotation
                    JOINT LeftHandRing2
                    {
                      OFFSET 5.854541 -0.486202 -1.373841
                      CHANNELS 3 Zrotation Yrotation Xrotation
                      JOINT LeftHandRing3
                      {
                        OFFSET 4.350578 0.0 3e-06
                        CHANNELS 3 Zrotation Yrotation Xrotation
                        JOINT LeftHandRing4
                        {
                          OFFSET 2.651321 7e-06 2e-06
                          CHANNELS 3 Zrotation Yrotation Xrotation
                          JOINT LeftHandRingEnd
                          {
                            OFFSET 1.936105 0.077687 -7.1e-05
                            CHANNELS 3 Zrotation Yrotation Xrotation
                          }
                        }
                      }
                    }
                  }
                  JOINT LeftHandPinky1
                  {
                    OFFSET 2.8655 -0.310005 -1.600378
                    CHANNELS 3 Zrotation Yrotation Xrotation
                    JOINT LeftHandPinky2
                    {
                      OFFSET 5.087849 -1.331141 -1.77123
                      CHANNELS 3 Zrotation Yrotation Xrotation
                      JOINT LeftHandPinky3
                      {
                        OFFSET 3.070974 4e-06 0.0
                        CHANNELS 3 Zrotation Yrotation Xrotation
                        JOINT LeftHandPinky4
                        {
                          OFFSET 1.549672 0.0 1e-06
                          CHANNELS 3 Zrotation Yrotation Xrotation
                          JOINT LeftHandPinkyEnd
                          {
                            OFFSET 1.944893 -0.157802 0.057219
                            CHANNELS 3 Zrotation Yrotation Xrotation
                          }
                        }
                      }
                    }
                  }
                }
              }
            }
          }
          JOINT RightShoulder
          {
            OFFSET -1.380118 23.180309 5.214158
            CHANNELS 3 Zrotation Yrotation Xrotation
            JOINT RightArm
            {
              OFFSET -15.037196 1.2e-05 -5.545604
              CHANNELS 3 Zrotation Yrotation Xrotation
              JOINT RightForeArm
              {
                OFFSET -28.736639 2e-06 -0.002597
                CHANNELS 3 Zrotation Yrotation Xrotation
                JOINT RightHand
                {
                  OFFSET -27.133619 -0.0 0.002613
                  CHANNELS 3 Zrotation Yrotation Xrotation
                  JOINT RightHandThumb1
                  {
                    OFFSET -2.274032 -1.383988 3.163127
                    CHANNELS 3 Zrotation Yrotation Xrotation
                    JOINT RightHandThumb2
                    {
                      OFFSET -4.011429 -1.827466 1.640914
                      CHANNELS 3 Zrotation Yrotation Xrotation
                      JOINT RightHandThumb3
                      {
                        OFFSET -2.794935 -4e-06 -3e-06
                        CHANNELS 3 Zrotation Yrotation Xrotation
                        JOINT RightHandThumbEnd
                        {
                          OFFSET -3.183852 4e-06 1e-06
                          CHANNELS 3 Zrotation Yrotation Xrotation
                        }
                      }
                    }
                  }
                  JOINT RightHandIndex1
                  {
                    OFFSET -3.253266 -0.520057 2.282866
                    CHANNELS 3 Zrotation Yrotation Xrotation
                    JOINT RightHandIndex2
                    {
                      OFFSET -6.341917 0.012471 0.178266
                      CHANNELS 3 Zrotation Yrotation Xrotation
                      JOINT RightHandIndex3
                      {
                        OFFSET -3.654871 -8e-06 -0.0
                        CHANNELS 3 Zrotation Yrotation Xrotation
                        JOINT RightHandIndex4
                        {
                          OFFSET -2.327586 0.0 1e-06
                          CHANNELS 3 Zrotation Yrotation Xrotation
                          JOINT RightHandIndexEnd
                          {
                            OFFSET -2.76179 -0.180656 -0.113078
                            CHANNELS 3 Zrotation Yrotation Xrotation
                          }
                        }
                      }
                    }
                  }
                  JOINT RightHandMiddle1
                  {
                    OFFSET -3.168106 0.246593 1.00103
                    CHANNELS 3 Zrotation Yrotation Xrotation
                    JOINT RightHandMiddle2
                    {
                      OFFSET -6.180828 -0.258836 -1.000895
                      CHANNELS 3 Zrotation Yrotation Xrotation
                      JOINT RightHandMiddle3
                      {
                        OFFSET -4.348901 0.0 -0.0
                        CHANNELS 3 Zrotation Yrotation Xrotation
                        JOINT RightHandMiddle4
                        {
                          OFFSET -3.00024 -4e-06 -2e-06
                          CHANNELS 3 Zrotation Yrotation Xrotation
                          JOINT RightHandMiddleEnd
                          {
                            OFFSET -2.30252 -0.29437 -0.031706
                            CHANNELS 3 Zrotation Yrotation Xrotation
                          }
                        }
                      }
                    }
                  }
                  JOINT RightHandRing1
                  {
                    OFFSET -2.88569 -0.067952 -0.308858
                    CHANNELS 3 Zrotation Yrotation Xrotation
                    JOINT RightHandRing2
                    {
                      OFFSET -5.854198 -0.48613 -1.373731
                      CHANNELS 3 Zrotation Yrotation Xrotation
                      JOINT RightHandRing3
                      {
                        OFFSET -4.33881 -4e-06 -0.0
                        CHANNELS 3 Zrotation Yrotation Xrotation
                        JOINT RightHandRing4
                        {
                          OFFSET -2.654903 -4e-06 4e-06
                          CHANNELS 3 Zrotation Yrotation Xrotation
                          JOINT RightHandRingEnd
                          {
                            OFFSET -1.933568 0.077527 -5.2e-05
                            CHANNELS 3 Zrotation Yrotation Xrotation
                          }
                        }
                      }
                    }
                  }
                  JOINT RightHandPinky1
                  {
                    OFFSET -2.866425 -0.342796 -1.584145
                    CHANNELS 3 Zrotation Yrotation Xrotation
                    JOINT RightHandPinky2
                    {
                      OFFSET -5.091371 -1.332055 -1.772385
                      CHANNELS 3 Zrotation Yrotation Xrotation
                      JOINT RightHandPinky3
                      {
                        OFFSET -3.062664 -4e-06 1e-06
                        CHANNELS 3 Zrotation Yrotation Xrotation
                        JOINT RightHandPinky4
                        {
                          OFFSET -1.546529 4e-06 -2e-06
                          CHANNELS 3 Zrotation Yrotation Xrotation
                          JOINT RightHandPinkyEnd
                          {
                            OFFSET -1.945119 -0.157718 0.057211
                            CHANNELS 3 Zrotation Yrotation Xrotation
                          }
                        }
                      }
                    }
                  }
                }
              }
            }
          }
        }
      }
    }
    JOINT LeftLeg
    {
      OFFSET 10.043214 -8.434526 2.595655
      CHANNELS 3 Zrotation Yrotation Xrotation
      JOINT LeftShin
      {
        OFFSET -1e-06 -43.221752 -0.802913
        CHANNELS 3 Zrotation Yrotation Xrotation
        JOINT LeftFoot
        {
          OFFSET 1e-06 -42.155094 -3.481523
          CHANNELS 3 Zrotation Yrotation Xrotation
          JOINT LeftToeBase
          {
            OFFSET 0.0 -5.059472 13.231529
            CHANNELS 3 Zrotation Yrotation Xrotation
            JOINT LeftToeEnd
            {
              OFFSET -0.009607 -1.647619 6.513017
              CHANNELS 3 Zrotation Yrotation Xrotation
            }
          }
        }
      }
    }
    JOINT RightLeg
    {
      OFFSET -10.047278 -8.29526 2.620317
      CHANNELS 3 Zrotation Yrotation Xrotation
      JOINT RightShin
      {
        OFFSET 1e-06 -43.362206 -0.805556
        CHANNELS 3 Zrotation Yrotation Xrotation
        JOINT RightFoot
        {
          OFFSET 2e-06 -42.117393 -3.478398
          CHANNELS 3 Zrotation Yrotation Xrotation
          JOINT RightToeBase
          {
            OFFSET -0.0 -5.079609 13.284196
            CHANNELS 3 Zrotation Yrotation Xrotation
            JOINT RightToeEnd
            {
              OFFSET 0.009532 -1.634378 6.460591
              CHANNELS 3 Zrotation Yrotation Xrotation
            }
          }
        }
      }
    }
  }
}
MOTION
Frames: 4
Frame Time: 0.03333333333333333
0.0 0.0 0.0 0.0 -0.0 0.0 2.858471 104.816643 3.073607 0.116236 -4.698951 3.588551 -0.484244 -0.55764 0.067239 -0.701394 -1.741341 -4.929815 2.354187 -2.13724 6.127523 -2.476648 3.764269 -5.577009 4.081604 13.188015 -2.833997 5.435319 13.558011 -10.911385 7.7e-05 -2.2e-05 6e-06 0.006097 0.019748 0.019187 0.656062 -3.729148 -10.659402 -0.653133 3.762568 -10.644855 14.559906 -9.375631 6.587223 27.852505 6.942932 -51.809772 -4.775255 -63.449554 4.785108 26.611032 15.293307 -26.299091 -5.882104 9.861284 0.702587 -10.936865 -0.360577 7.156204 -0.0 8.774823 -2e-06 -17.232586 17.815245 5.716434 -1.844032 2.498504 -2.50728 -10.163595 4.678943 4.621108 -20.976017 -5e-06 -1e-06 -21.226278 2.451693 -3.594002 0.0 -5e-06 -0.0 -1.362683 2.240798 -0.746324 -21.334902 0.584906 3.00832 -13.821208 -4e-06 1e-06 -23.887157 -0.249083 -0.839483 -60.772331 2.269656 -0.847987 -0.294024 1.679686 0.833256 -14.218205 0.093214 1.30058 -34.212036 -0.287566 0.967168 -20.033205 0.964535 1.212843 -0.0 1e-06 0.0 -3.440387 0.788233 0.501654 -15.928179 -3.167311 2.999706 -6.338822 -1e-06 1e-06 -18.12344 3.64818 -4.905672 -4e-06 0.0 -2e-06 0.001093 7.395538 14.53554 58.561142 -10.770512 13.85736 -2.905473 70.934525 -2.775324 -7.489415 -2.703437 -11.182697 2.243539 -5.255033 -3.180155 14.282883 -0.826592 6.952497 -2e-06 -12.690598 0.0 16.173346 -18.082275 2.726253 1.665666 -1.955921 -2.878296 4.727794 -4.170584 4.993921 11.020517 5e-06 1e-06 12.10904 -3.735711 -2.866783 0.0 -1e-06 -2e-06 1.291984 -1.928548 -1.498089 14.800117 0.567468 3.865606 14.24256 -1.341734 -6.660652 19.631952 0.143925 -0.648245 49.989792 -0.609847 -6.738369 0.353029 -1.511148 -0.031941 20.22278 3.684307 2.316628 18.787264 7e-06 1e-06 10.751622 -0.479868 1.397904 2e-06 1e-06 1e-06 3.273805 0.305949 -0.58011 21.486801 11.830368 2.266131 8.162921 1e-06 -0.0 18.399069 -3.79898 -4.940572 3e-06 1e-06 1e-06 1.344908 13.779538 -11.779621 -0.019193 -0.264243 22.340754 -1.994759 1.08693 13.214927 2.008557 -2.083974 -11.292087 0.0 -0.0 2e-06 -6.796161 -2.807802 -15.243002 0.116998 0.845618 22.863848 8.88171 7.952523 14.610118 -1.442237 0.890059 -10.635484 0.0 -0.0 -1e-06 
0.0 0.0 0.0 0.0 -0.0 0.0 2.962102 101.16925 2.844073 -0.208802 -4.808478 2.99948 -0.34154 -0.452619 0.320098 -0.6896 -1.868065 -4.913164 2.522635 -2.293315 6.49282 -3.168895 3.958781 -4.497397 3.873247 13.390469 -2.954218 5.398374 13.696815 -11.353152 7.7e-05 -2.1e-05 6e-06 0.024408 0.070531 -0.009645 0.660446 -3.689535 -10.6214 -0.621493 3.824209 -10.602117 12.263745 -8.71207 7.157781 29.559959 5.815689 -53.75016 -4.738563 -66.195442 5.430786 30.758135 14.933338 -21.041521 -5.882098 9.861273 0.702591 -10.936856 -0.360572 7.156199 -2e-06 8.774815 -0.0 -17.351173 18.010368 5.859803 -1.844029 2.498501 -2.507275 -10.163586 4.67894 4.621106 -20.975996 -1e-06 4e-06 -21.226255 2.451698 -3.593995 1e-06 -6e-06 -0.0 -1.362679 2.240796 -0.746322 -21.334883 0.584909 3.008322 -13.821194 0.0 4e-06 -23.887135 -0.249074 -0.839481 -60.734581 2.5065 -0.916912 -0.294024 1.679685 0.833256 -14.218188 0.093216 1.300582 -34.211994 -0.287557 0.967173 -20.03318 0.96454 1.212842 -0.0 1e-06 -0.0 -3.440384 0.788233 0.501655 -15.928164 -3.167304 2.999705 -6.338815 1e-06 3e-06 -18.123423 3.648182 -4.905662 -4e-06 1e-06 -1e-06 0.902696 6.751189 14.339662 58.711693 -10.150769 13.656657 -1.932135 67.634796 -1.74064 -7.275869 -3.692845 -11.091011 2.243536 -5.255027 -3.180153 14.282869 -0.826591 6.952494 -5e-06 -12.690579 -2e-06 16.187304 -17.975927 2.65082 1.665663 -1.955919 -2.878295 4.727791 -4.170578 4.993918 11.020509 4e-06 0.0 12.109032 -3.735708 -2.866778 0.0 -1e-06 -1e-06 1.291983 -1.928547 -1.498088 14.800105 0.56747 3.865604 14.242547 -1.341733 -6.660645 19.631935 0.143927 -0.64824 49.925701 -0.630455 -6.89161 0.353028 -1.511147 -0.031941 20.222761 3.684308 2.316629 18.787243 6e-06 3e-06 10.751613 -0.479868 1.397907 -1e-06 1e-06 -0.0 3.273801 0.305949 -0.58011 21.486784 11.830359 2.266133 8.162915 2e-06 2e-06 18.399054 -3.798978 -4.940563 2e-06 -0.0 0.0 1.855305 13.748659 -12.205429 -0.138264 -0.244418 27.836853 -2.164387 1.149806 -2.047287 1.872084 -2.115661 -6.641266 -0.0 -0.0 1e-06 -6.673393 -5.50324 -15.999457 0.213582 0.618846 28.627131 6.274157 9.800918 0.539189 -1.400551 0.774003 -6.211485 0.0 0.0 -1e-06 
0.0 0.0 0.0 0.0 -0.0 0.0 3.076026 98.691368 2.621726 0.103397 -5.02128 2.488205 -0.609542 -0.383444 0.512692 -0.739131 -1.903312 -4.78565 2.45853 -2.325925 6.893104 -3.752899 4.353858 -3.99031 3.761364 13.430638 -2.98045 5.438323 13.932095 -12.116729 7.7e-05 -2.2e-05 7e-06 0.038907 0.094553 -0.013527 0.676954 -3.656452 -10.593965 -0.610212 3.842571 -10.559956 10.83522 -8.204773 7.648659 30.030075 4.654515 -56.362579 -3.302979 -68.781868 3.990386 34.677509 12.755634 -15.701311 -5.882101 9.861281 0.70259 -10.936863 -0.360576 7.156199 -0.0 8.774822 -1e-06 -17.327162 18.105862 6.175496 -1.844031 2.498504 -2.507276 -10.16359 4.678943 4.621105 -20.976009 -6e-06 -1e-06 -21.226271 2.451694 -3.593999 2e-06 -5e-06 -0.0 -1.362681 2.240797 -0.746322 -21.334896 0.584906 3.00832 -13.821198 -4e-06 1e-06 -23.887154 -0.249081 -0.839483 -60.746582 2.639922 -0.788275 -0.294024 1.679687 0.833253 -14.218199 0.093213 1.300577 -34.212025 -0.287568 0.967168 -20.033197 0.964535 1.212842 -0.0 2e-06 -0.0 -3.440386 0.788232 0.501655 -15.928174 -3.167309 2.999703 -6.33882 -1e-06 0.0 -18.123432 3.64818 -4.905669 -3e-06 0.0 -2e-06 1.358768 6.463558 14.579453 59.940491 -8.524572 13.295754 -0.951066 62.20845 -0.741016 -7.281432 -4.286071 -10.633206 2.243539 -5.255032 -3.180155 14.282877 -0.826591 6.952496 -3e-06 -12.690595 -1e-06 16.067818 -17.998016 2.617123 1.665665 -1.95592 -2.878297 4.727794 -4.170583 4.993919 11.020515 5e-06 -3e-06 12.10904 -3.735712 -2.866782 -0.0 1e-06 -0.0 1.291985 -1.928549 -1.498088 14.800115 0.567469 3.865604 14.242558 -1.341734 -6.660653 19.631948 0.143927 -0.648245 49.742805 -0.663375 -7.060886 0.353029 -1.511149 -0.03194 20.222771 3.684308 2.316627 18.787254 6e-06 -2e-06 10.751618 -0.479867 1.397905 1e-06 2e-06 0.0 3.273803 0.305948 -0.58011 21.486795 11.830365 2.266131 8.162919 1e-06 -1e-06 18.399063 -3.79898 -4.940572 3e-06 1e-06 -1e-06 1.319263 12.803906 -12.778821 -0.108955 -0.276925 31.301203 -2.265317 2.463313 -11.067442 1.778549 -2.114981 -2.727698 -0.0 0.0 2e-06 -7.161984 -7.465993 -17.504725 0.260352 0.518261 33.718948 4.467178 11.05158 -7.723245 -1.407883 0.729768 -3.278233 0.0 0.0 -1e-06 
0.0 0.0 0.0 0.0 -0.0 0.0 3.149692 97.511337 2.492777 0.811208 -5.234851 2.022993 -1.055602 -0.463357 0.706116 -0.867574 -1.666469 -4.669275 2.081054 -2.472865 7.081226 -4.17628 4.83881 -3.587003 3.807315 13.576035 -2.894702 5.498552 14.163331 -12.644109 7.7e-05 -2.2e-05 6e-06 0.030278 0.081853 -0.009711 0.626465 -3.664872 -10.559336 -0.577119 3.825903 -10.528747 10.971693 -8.167583 7.63377 28.856638 3.988456 -58.402092 -2.399271 -71.343781 3.585486 36.394512 9.900552 -12.455791 -5.882103 9.861284 0.702589 -10.936865 -0.360577 7.156204 1e-06 8.774824 -3e-06 -17.981796 18.011377 5.906726 -1.84403 2.498506 -2.507277 -10.163595 4.678942 4.621106 -20.976013 -6e-06 3e-06 -21.226273 2.451694 -3.593999 0.0 -5e-06 -0.0 -1.362681 2.240798 -0.746323 -21.334906 0.584906 3.008323 -13.821207 -4e-06 2e-06 -23.887159 -0.249079 -0.839482 -61.189861 2.706259 -0.802089 -0.294024 1.679687 0.833255 -14.218202 0.093213 1.300582 -34.212036 -0.287566 0.967172 -20.033211 0.964534 1.212845 -1e-06 2e-06 0.0 -3.440387 0.788232 0.501654 -15.928179 -3.167311 2.999707 -6.338823 -2e-06 1e-06 -18.12344 3.648182 -4.905669 -4e-06 -0.0 -3e-06 0.731724 6.715935 14.75289 62.532028 -6.943677 13.365189 -0.044975 56.135323 -0.021141 -7.277785 -4.210448 -9.987505 2.243541 -5.255035 -3.180157 14.282892 -0.826594 6.952503 -3e-06 -12.690601 1e-06 16.070896 -18.089918 2.50485 1.665667 -1.955923 -2.878298 4.727801 -4.170587 4.993923 11.020529 4e-06 -1e-06 12.109055 -3.735715 -2.866784 -0.0 -0.0 -0.0 1.291986 -1.928549 -1.498089 14.800129 0.567469 3.865606 14.242574 -1.341737 -6.660658 19.631969 0.143927 -0.648245 49.726616 -0.607148 -7.034215 0.353031 -1.511152 -0.03194 20.222797 3.68431 2.31663 18.787277 6e-06 -0.0 10.751629 -0.479868 1.397905 -0.0 0.0 -0.0 3.273807 0.305947 -0.580111 21.486816 11.830373 2.26613 8.16293 2e-06 -2e-06 18.399082 -3.79898 -4.940577 3e-06 -2e-06 -0.0 0.404553 11.857392 -12.660803 -0.063556 -0.3334 32.172817 -2.733083 3.432649 -14.587884 1.731793 -2.036036 -1.283728 -0.0 0.0 2e-06 -7.912895 -8.055175 -18.013958 0.319984 0.515477 35.785011 3.898602 11.237744 -11.617212 -1.417766 0.689218 -2.360737 0.0 0.0 -1e-06 
